<?xml version="1.0" encoding="utf-8"?>
<!-- Generator: Adobe Illustrator 23.0.1, SVG Export Plug-In . SVG Version: 6.00 Build 0)  -->
<svg version="1.1" id="Layer_1" xmlns="http://www.w3.org/2000/svg" xmlns:xlink="http://www.w3.org/1999/xlink" x="0px" y="0px"
	 viewBox="0 0 312.8 360.2" style="enable-background:new 0 0 312.8 360.2;" xml:space="preserve">
<style type="text/css">
	.st0{fill:#1F3254;stroke:#1F3254;stroke-width:9;stroke-miterlimit:10;}
	.st1{fill:#34C66F;}
</style>
<path class="st0" d="M283.3,10.6c0,0-160.5,35.6-165,36.6c-5.8,1.4-18.3,2.5-18.3,18.4v211c-13.1-7.4-33.1-8.4-53.1-1.2
	C17.2,286.2-1.1,310.7,6,330.2s36.8,26.8,66.4,16.1c27.5-9.9,45.3-31.8,42-50.5V136.2c0-8.8-0.2-20.1,22.7-25
	c10.5-2.2,153-34,153-34v147.5c-13.1-7.6-33.3-8.7-53.6-1.4c-29.6,10.7-47.9,35.1-40.9,54.7c7.1,19.6,36.8,26.8,66.4,16.1
	c27.3-9.8,44.9-31.3,42.1-50h0.3V41.2c0-25.2,0-35.5,0-35.5L283.3,10.6z"/>
<path class="st1" d="M291.6,19.5c0,0-160.5,35.6-165,36.6c-5.8,1.4-18.3,2.5-18.3,18.4v211c-13.1-7.4-33.1-8.4-53.1-1.2
	c-29.6,10.7-47.9,35.1-40.9,54.7s36.8,26.8,66.4,16.1c27.5-9.9,45.3-31.8,42-50.5V145.1c0-8.8-0.2-20.1,22.7-25
	c10.5-2.2,153-34,153-34v147.5c-13.1-7.6-33.3-8.7-53.6-1.4c-29.6,10.7-47.9,35.1-40.9,54.7c7.1,19.6,36.8,26.8,66.4,16.1
	c27.3-9.8,44.9-31.3,42.1-50h0.3V50.1c0-25.2,0-35.5,0-35.5L291.6,19.5z"/>
</svg>
